<?xml version="1.0" encoding="utf-8"?>
<!-- Generator: Adobe Illustrator 21.1.0, SVG Export Plug-In . SVG Version: 6.00 Build 0)  -->
<svg version="1.1" id="Layer_1" xmlns="http://www.w3.org/2000/svg" xmlns:xlink="http://www.w3.org/1999/xlink" x="0px" y="0px"
	 viewBox="0 0 354.3 46.3" style="enable-background:new 0 0 354.3 46.3;" xml:space="preserve">
<style type="text/css">
	.st0{fill:#FFFFFF;}
	.st1{enable-background:new    ;}
</style>
<g>
	<path class="st0" d="M137.9,19.9h-6.7v17.5h-5.9V15h5.9v3.1c0.3-0.8,0.7-1.4,1.2-1.9c0.5-0.5,1.1-0.9,1.8-1.1
		c0.3-0.1,0.7-0.2,1.1-0.3c0.4-0.1,0.8-0.1,1.2-0.1c0.5,0,1,0.1,1.4,0.2V19.9L137.9,19.9z"/>
	<path class="st0" d="M24.5,37.1H8.4c-1.8,0-3.4-0.6-4.6-1.8c-1.3-1.2-1.9-2.8-1.9-4.6c0-1.9,0.6-3.6,1.7-4.8C4.8,24.6,6.2,24,8,24
		h10.4v-1.2c0-0.4-0.1-0.7-0.2-1c-0.1-0.3-0.3-0.6-0.6-1c-0.4-0.5-0.8-0.8-1.2-0.9s-1-0.2-1.8-0.2H3.4v-4.9h11.4
		c2.1,0,3.7,0.2,4.7,0.5s1.9,0.9,2.7,1.6c0.9,0.9,1.6,2,1.9,3.1c0.3,1.1,0.5,2.5,0.5,4.3L24.5,37.1L24.5,37.1z M18.4,32.5v-4.3h-7.6
		c-0.7,0-1.3,0.2-1.8,0.6c-0.6,0.4-0.8,1-0.8,1.7c0,0.6,0.2,1.1,0.7,1.5c0.5,0.4,1.1,0.6,1.7,0.6L18.4,32.5L18.4,32.5z M48.6,37.1
		H37.1c-2.1,0-3.6-0.1-4.4-0.3c-1.4-0.3-2.6-1.1-3.4-2.2c-1-1.3-1.5-2.8-1.5-4.5V14.8h6v14.8c0,0.7,0.3,1.3,0.9,1.9
		c0.6,0.5,1.3,0.8,2,0.8h5.9V14.8h6L48.6,37.1L48.6,37.1z M67.2,19.5h-5.8v10.1c0,0.9,0.3,1.7,0.9,2.3c0.7,0.6,1.7,0.9,2.8,0.9h1.8
		v4.3h-5.6c-1.7,0-3.1-0.6-4.3-1.8c-0.7-0.7-1.1-1.5-1.3-2.4c-0.2-0.9-0.3-1.9-0.3-3.1V19.5h-3.8v-4.7h3.8V7h5.9v7.8h5.9V19.5z
		 M95.3,25.9c0,3.9-1.2,6.9-3.7,8.9c-2.3,1.9-5.4,2.8-9.3,2.8s-6.9-0.9-9.1-2.6c-2.5-2-3.7-5.1-3.7-9.3c0-3.5,1.3-6.3,4-8.3
		c2.4-1.8,5.4-2.7,8.9-2.7c3.9,0,7,1,9.3,2.9S95.3,22.4,95.3,25.9L95.3,25.9z M88.6,25.8c0-1.8-0.6-3.3-1.7-4.6
		c-1.1-1.1-2.7-1.7-4.6-1.7c-1.8,0-3.2,0.6-4.4,1.9c-1.2,1.3-1.7,2.8-1.7,4.7c0,2.2,0.6,3.9,1.8,5.2c1.2,1.3,2.7,1.9,4.6,1.9
		c2.1,0,3.7-0.7,4.7-2C88.1,30,88.6,28.2,88.6,25.8L88.6,25.8z"/>
	<path class="st0" d="M121,37.1h-14c-2.7,0-4.9-1.2-6.7-3.6c-1.6-2.2-2.5-4.9-2.5-7.9c0-2.9,0.9-5.4,2.8-7.6
		c1.8-2.2,4.1-3.2,6.9-3.2h7.7V7h5.8L121,37.1L121,37.1z M115,32.2V19.5h-5.6c-1.6,0-2.8,0.6-3.8,1.9c-1,1.2-1.5,2.7-1.5,4.4
		c0,1.7,0.5,3.2,1.4,4.5s2.2,2,3.7,2C109.2,32.2,115,32.2,115,32.2z M147,12.3h-5.9V7h5.9V12.3z M147,37.1h-5.9V14.8h5.9V37.1z"/>
	<path class="st0" d="M169.1,14.8l-6.2,15.6L157,14.8h-7.1l9.2,22.3h7.4l9.6-22.3L169.1,14.8z M201.6,24.6c0,0.2,0,0.4,0,0.7
		C201.6,25,201.6,24.8,201.6,24.6z M201.6,25.9L201.6,25.9c0,0.4,0,0.8-0.1,1.2C201.6,26.7,201.6,26.3,201.6,25.9L201.6,25.9z
		 M175.9,24.6c0-0.1,0-0.1,0-0.2C175.9,24.4,175.9,24.5,175.9,24.6z M175.8,25.8L175.8,25.8c0-0.2,0-0.4,0-0.6
		C175.8,25.4,175.8,25.6,175.8,25.8z"/>
	<path class="st0" d="M201.6,25.2c0-0.2,0-0.5,0-0.7c0-0.1,0-0.1,0-0.2c-0.3-2.8-1.4-5-3.4-6.6c-2.3-1.9-5.4-2.9-9.3-2.9
		c0,0,0,0-0.1,0c0,0,0,0-0.1,0c-3.9,0-7,1-9.3,2.9c-2,1.6-3.1,3.9-3.4,6.6c0,0.1,0,0.1,0,0.2c0,0.2,0,0.4,0,0.7c0,0.2,0,0.4,0,0.6
		l0,0c0,0.4,0,0.8,0.1,1.2c0.2,3.4,1.5,5.6,3.7,7.4c2.2,1.7,5.2,2.6,9.1,2.6c0,0,0,0,0.1,0c0,0,0,0,0.1,0c3.7,0,6.6-0.8,8.7-2.3
		l-3.4-3.3c-2.8,1.3-5.2,1.1-5.2,1.1l0,0h-0.1c-1.8,0-3.3-0.7-4.5-1.9c-0.7-0.8-1.2-1.6-1.5-2.5h18.7c0.1-0.4,0.1-0.7,0.1-1.1
		s0-0.8,0-1.3l0,0C201.6,25.6,201.6,25.4,201.6,25.2L201.6,25.2z M182.7,23.9c0.3-1,0.8-1.9,1.5-2.6c0.5-0.5,1.1-1,1.8-1.3
		c0.8-0.4,1.7-0.5,2.7-0.5h0.1c0.9,0,1.8,0.2,2.6,0.5c0.7,0.3,1.3,0.8,1.8,1.3c0.7,0.7,1.2,1.6,1.5,2.6H182.7L182.7,23.9z"/>
	<g class="st1">
		<path class="st0" d="M206.3,44.7h-2.8l14.4-40.9h2.7L206.3,44.7z"/>
		<path class="st0" d="M229.9,14.6c1.4,0,2.7,0.2,3.7,0.6c1,0.4,1.8,1,2.4,1.7s1.1,1.6,1.4,2.6c0.3,1,0.4,2.1,0.4,3.2v13.8
			c-0.3,0.1-0.7,0.2-1.2,0.3c-0.5,0.1-1.2,0.2-1.9,0.3c-0.7,0.1-1.5,0.2-2.3,0.3c-0.9,0.1-1.7,0.1-2.6,0.1c-1.2,0-2.2-0.1-3.2-0.4
			c-1-0.3-1.8-0.7-2.5-1.2c-0.7-0.5-1.3-1.3-1.7-2.1c-0.4-0.9-0.6-1.9-0.6-3.1c0-1.2,0.2-2.2,0.7-3c0.5-0.8,1.1-1.5,1.9-2.1
			c0.8-0.5,1.8-1,2.9-1.2c1.1-0.3,2.4-0.4,3.7-0.4c0.4,0,0.8,0,1.2,0.1c0.4,0,0.9,0.1,1.3,0.2s0.8,0.1,1.1,0.2s0.5,0.1,0.6,0.2v-1.4
			c0-0.8-0.1-1.5-0.2-2.2c-0.1-0.7-0.4-1.4-0.7-1.9c-0.4-0.6-0.9-1-1.6-1.4c-0.7-0.4-1.6-0.5-2.7-0.5c-1.6,0-2.8,0.1-3.6,0.3
			c-0.8,0.2-1.4,0.4-1.7,0.5l-0.4-2.4c0.5-0.2,1.2-0.4,2.2-0.6C227.3,14.7,228.5,14.6,229.9,14.6z M230.2,34.9c1.1,0,2,0,2.8-0.1
			s1.5-0.2,2-0.3v-7.7c-0.3-0.1-0.8-0.3-1.5-0.4c-0.7-0.2-1.6-0.2-2.8-0.2c-0.7,0-1.4,0-2.1,0.1c-0.7,0.1-1.4,0.3-2,0.6
			c-0.6,0.3-1.1,0.8-1.5,1.3c-0.4,0.6-0.6,1.3-0.6,2.2c0,0.8,0.1,1.5,0.4,2.1c0.3,0.6,0.6,1,1.1,1.4c0.5,0.3,1.1,0.6,1.8,0.7
			C228.5,34.8,229.3,34.9,230.2,34.9z"/>
		<path class="st0" d="M259,34.4c-0.2,0.1-0.4,0.3-0.8,0.5c-0.3,0.2-0.8,0.4-1.2,0.6c-0.5,0.2-1.1,0.4-1.7,0.5
			c-0.6,0.1-1.3,0.2-2.1,0.2c-1.3,0-2.5-0.2-3.7-0.6c-1.2-0.4-2.2-1-3.1-1.9c-0.9-0.8-1.6-1.9-2.1-3.3c-0.5-1.3-0.8-3-0.8-4.9
			c0-1.5,0.2-3,0.7-4.3c0.5-1.3,1.2-2.5,2-3.4c0.9-1,2-1.7,3.3-2.3c1.3-0.5,2.7-0.8,4.3-0.8c2,0,3.7,0.1,4.9,0.4
			c1.2,0.3,2.2,0.5,3,0.8v19.9c0,3.3-0.8,5.6-2.5,7c-1.7,1.4-4.2,2.1-7.6,2.1c-1.4,0-2.7-0.1-3.8-0.3c-1.1-0.2-2.1-0.5-2.9-0.7
			l0.5-2.5c0.7,0.3,1.6,0.6,2.8,0.8c1.2,0.2,2.3,0.3,3.5,0.3c2.6,0,4.5-0.5,5.6-1.5s1.8-2.7,1.8-5.1V34.4z M259,17.7
			c-0.5-0.1-1.1-0.3-1.9-0.4c-0.8-0.1-1.8-0.2-3.3-0.2c-1.2,0-2.2,0.2-3.1,0.6c-0.9,0.4-1.7,1-2.3,1.7c-0.6,0.7-1.1,1.6-1.5,2.7
			c-0.3,1-0.5,2.2-0.5,3.4c0,1.4,0.2,2.7,0.6,3.7c0.4,1,0.9,1.9,1.5,2.5c0.6,0.6,1.4,1.1,2.2,1.4c0.8,0.3,1.6,0.4,2.5,0.4
			c1.2,0,2.4-0.2,3.4-0.5c1-0.4,1.8-0.8,2.4-1.3V17.7z"/>
		<path class="st0" d="M267.7,26c0-1.9,0.3-3.6,0.8-5c0.5-1.4,1.3-2.6,2.2-3.6c0.9-1,1.9-1.7,3-2.1s2.3-0.7,3.5-0.7
			c2.7,0,4.8,0.9,6.4,2.6c1.6,1.7,2.4,4.4,2.4,8.1c0,0.2,0,0.5,0,0.7c0,0.2,0,0.4-0.1,0.6h-15.3c0.1,2.7,0.7,4.7,2,6.2
			c1.2,1.4,3.2,2.2,5.9,2.2c1.5,0,2.7-0.1,3.5-0.4s1.5-0.5,1.9-0.7l0.5,2.4c-0.4,0.2-1.1,0.5-2.2,0.8c-1.1,0.3-2.4,0.5-3.8,0.5
			c-1.9,0-3.5-0.3-4.9-0.8c-1.4-0.6-2.5-1.4-3.3-2.4c-0.9-1-1.5-2.2-1.9-3.6S267.7,27.6,267.7,26z M283.2,24.2
			c-0.1-2.3-0.6-4.1-1.6-5.3c-1-1.3-2.5-1.9-4.3-1.9c-1,0-1.9,0.2-2.6,0.6c-0.8,0.4-1.5,0.9-2,1.6s-1,1.4-1.4,2.3
			c-0.3,0.9-0.5,1.8-0.6,2.7H283.2z"/>
		<path class="st0" d="M292.2,15.8c0.8-0.2,1.9-0.5,3.3-0.8c1.4-0.3,3.1-0.4,5.1-0.4c1.7,0,3,0.2,4.2,0.7c1.1,0.5,2,1.2,2.7,2
			c0.7,0.9,1.1,2,1.4,3.2c0.3,1.2,0.4,2.6,0.4,4.1v12.2h-2.7V25.6c0-1.5-0.1-2.9-0.3-3.9c-0.2-1.1-0.6-1.9-1.1-2.6
			c-0.5-0.7-1.1-1.2-1.9-1.5c-0.8-0.3-1.8-0.4-3-0.4c-1.3,0-2.4,0.1-3.4,0.2c-0.9,0.1-1.6,0.3-1.8,0.4v19.2h-2.7V15.8z"/>
		<path class="st0" d="M325.2,37.4c-1.7,0-3.2-0.3-4.5-0.8c-1.3-0.5-2.4-1.3-3.2-2.3c-0.9-1-1.5-2.2-2-3.6c-0.5-1.4-0.7-2.9-0.7-4.6
			c0-1.7,0.2-3.3,0.7-4.7c0.5-1.4,1.1-2.6,2-3.6c0.9-1,1.9-1.8,3.2-2.3c1.2-0.5,2.6-0.8,4.2-0.8c1.2,0,2.3,0.1,3.3,0.3
			c1,0.2,1.8,0.5,2.4,0.8l-0.7,2.4c-0.6-0.3-1.2-0.5-1.9-0.7c-0.7-0.2-1.6-0.3-2.8-0.3c-2.4,0-4.3,0.8-5.5,2.3
			c-1.3,1.6-1.9,3.8-1.9,6.7c0,1.3,0.1,2.5,0.4,3.6c0.3,1.1,0.7,2,1.4,2.8s1.5,1.4,2.5,1.8s2.2,0.7,3.7,0.7c1.2,0,2.2-0.1,3-0.4
			c0.8-0.3,1.4-0.5,1.8-0.7l0.6,2.4c-0.5,0.3-1.3,0.6-2.4,0.8C327.5,37.2,326.4,37.4,325.2,37.4z"/>
		<path class="st0" d="M342,37.4c-0.9-1.7-1.8-3.5-2.7-5.4s-1.7-3.7-2.4-5.6c-0.7-1.9-1.4-3.8-2.1-5.7c-0.6-1.9-1.2-3.8-1.6-5.6h2.9
			c0.3,1.4,0.7,2.8,1.2,4.4s1,3.2,1.6,4.8s1.3,3.4,2,5.1c0.7,1.7,1.5,3.5,2.4,5.2c0.6-1.7,1.2-3.4,1.7-4.9c0.5-1.5,0.9-3.1,1.3-4.6
			c0.4-1.5,0.8-3.1,1.2-4.7s0.8-3.3,1.2-5.2h2.7c-0.9,4.1-1.9,8.1-3.1,11.9c-1.1,3.9-2.4,7.4-3.7,10.6c-0.5,1.3-1.1,2.4-1.7,3.3
			c-0.6,0.9-1.2,1.7-1.9,2.3c-0.7,0.6-1.5,1-2.4,1.3c-0.9,0.3-2,0.4-3.2,0.4c-0.7,0-1.4-0.1-1.9-0.3c-0.6-0.2-0.9-0.3-1.1-0.4
			l0.5-2.3c0.1,0.1,0.4,0.2,1,0.4c0.5,0.2,1.1,0.2,1.6,0.2c0.8,0,1.5-0.1,2.1-0.3c0.6-0.2,1.2-0.5,1.7-0.9c0.5-0.4,1-0.9,1.4-1.6
			C341.3,39.2,341.7,38.4,342,37.4z"/>
	</g>
</g>
</svg>
